M48
;Layer_Color=9474304
;FILE_FORMAT=4:4
METRIC,LZ
;TYPE=PLATED
T1F00S00C0.3000
T2F00S00C0.9000
T3F00S00C3.0000
;TYPE=NON_PLATED
T4F00S00C5.0000
T5F00S00C9.0000
%
T01
X00407054Y00211771
X00500738Y00142506
X00617262Y00134581
X00720157Y00191276
X00775502Y00295001
X00766253Y00411499
X00695489Y00504502
X00585677Y00544484
X00471682Y0051875
X00389505Y00435527
T02
X00355Y002796
Y00305
Y003304
T03
X00484091Y00235478
X00553283Y00203876
X00628577Y00214698
X00686067Y00264509
X00707501Y00337501
X00442968Y00299471
X0044297Y00375538
X00484096Y00439529
X0055329Y00471127
X00628583Y004603
X0068607Y00410487
T04
X0035Y00115
X00795
Y0056
X0035
T05
X00572501Y00337501
M30
