G04*
G04 #@! TF.GenerationSoftware,Altium Limited,Altium Designer,21.9.2 (33)*
G04*
G04 Layer_Physical_Order=1*
G04 Layer_Color=255*
%FSLAX44Y44*%
%MOMM*%
G71*
G04*
G04 #@! TF.SameCoordinates,306BE07C-DE04-4A2C-8D75-E4C0B7DA88A3*
G04*
G04*
G04 #@! TF.FilePolarity,Positive*
G04*
G01*
G75*
%ADD45C,0.5000*%
G04:AMPARAMS|DCode=46|XSize=1.15mm|YSize=1.8mm|CornerRadius=0mm|HoleSize=0mm|Usage=FLASHONLY|Rotation=229.091|XOffset=0mm|YOffset=0mm|HoleType=Round|Shape=Rectangle|*
%AMROTATEDRECTD46*
4,1,4,-0.3036,1.0239,1.0567,-0.1548,0.3036,-1.0239,-1.0567,0.1548,-0.3036,1.0239,0.0*
%
%ADD46ROTATEDRECTD46*%

G04:AMPARAMS|DCode=47|XSize=1.8mm|YSize=1.2mm|CornerRadius=0mm|HoleSize=0mm|Usage=FLASHONLY|Rotation=319.091|XOffset=0mm|YOffset=0mm|HoleType=Round|Shape=Rectangle|*
%AMROTATEDRECTD47*
4,1,4,-1.0731,0.1359,-0.2873,1.0428,1.0731,-0.1359,0.2873,-1.0428,-1.0731,0.1359,0.0*
%
%ADD47ROTATEDRECTD47*%

G04:AMPARAMS|DCode=48|XSize=1.15mm|YSize=1.8mm|CornerRadius=0mm|HoleSize=0mm|Usage=FLASHONLY|Rotation=261.818|XOffset=0mm|YOffset=0mm|HoleType=Round|Shape=Rectangle|*
%AMROTATEDRECTD48*
4,1,4,-0.8090,0.6972,0.9727,0.4411,0.8090,-0.6972,-0.9727,-0.4411,-0.8090,0.6972,0.0*
%
%ADD48ROTATEDRECTD48*%

G04:AMPARAMS|DCode=49|XSize=1.8mm|YSize=1.2mm|CornerRadius=0mm|HoleSize=0mm|Usage=FLASHONLY|Rotation=351.818|XOffset=0mm|YOffset=0mm|HoleType=Round|Shape=Rectangle|*
%AMROTATEDRECTD49*
4,1,4,-0.9762,-0.4658,-0.8055,0.7220,0.9762,0.4658,0.8055,-0.7220,-0.9762,-0.4658,0.0*
%
%ADD49ROTATEDRECTD49*%

G04:AMPARAMS|DCode=50|XSize=1.15mm|YSize=1.8mm|CornerRadius=0mm|HoleSize=0mm|Usage=FLASHONLY|Rotation=294.545|XOffset=0mm|YOffset=0mm|HoleType=Round|Shape=Rectangle|*
%AMROTATEDRECTD50*
4,1,4,-1.0575,0.1492,0.5798,0.8969,1.0575,-0.1492,-0.5798,-0.8969,-1.0575,0.1492,0.0*
%
%ADD50ROTATEDRECTD50*%

G04:AMPARAMS|DCode=51|XSize=1.8mm|YSize=1.2mm|CornerRadius=0mm|HoleSize=0mm|Usage=FLASHONLY|Rotation=24.545|XOffset=0mm|YOffset=0mm|HoleType=Round|Shape=Rectangle|*
%AMROTATEDRECTD51*
4,1,4,-0.5694,-0.9197,-1.0679,0.1719,0.5694,0.9197,1.0679,-0.1719,-0.5694,-0.9197,0.0*
%
%ADD51ROTATEDRECTD51*%

G04:AMPARAMS|DCode=52|XSize=1.15mm|YSize=1.8mm|CornerRadius=0mm|HoleSize=0mm|Usage=FLASHONLY|Rotation=147.273|XOffset=0mm|YOffset=0mm|HoleType=Round|Shape=Rectangle|*
%AMROTATEDRECTD52*
4,1,4,0.9703,0.4463,-0.0029,-1.0680,-0.9703,-0.4463,0.0029,1.0680,0.9703,0.4463,0.0*
%
%ADD52ROTATEDRECTD52*%

G04:AMPARAMS|DCode=53|XSize=1.8mm|YSize=1.2mm|CornerRadius=0mm|HoleSize=0mm|Usage=FLASHONLY|Rotation=57.273|XOffset=0mm|YOffset=0mm|HoleType=Round|Shape=Rectangle|*
%AMROTATEDRECTD53*
4,1,4,0.0182,-1.0815,-0.9913,-0.4327,-0.0182,1.0815,0.9913,0.4327,0.0182,-1.0815,0.0*
%
%ADD53ROTATEDRECTD53*%

%ADD54R,1.1500X1.8000*%
%ADD55R,1.2000X1.8000*%
G04:AMPARAMS|DCode=56|XSize=1.15mm|YSize=1.8mm|CornerRadius=0mm|HoleSize=0mm|Usage=FLASHONLY|Rotation=212.727|XOffset=0mm|YOffset=0mm|HoleType=Round|Shape=Rectangle|*
%AMROTATEDRECTD56*
4,1,4,-0.0029,1.0680,0.9703,-0.4463,0.0029,-1.0680,-0.9703,0.4463,-0.0029,1.0680,0.0*
%
%ADD56ROTATEDRECTD56*%

G04:AMPARAMS|DCode=57|XSize=1.8mm|YSize=1.2mm|CornerRadius=0mm|HoleSize=0mm|Usage=FLASHONLY|Rotation=122.727|XOffset=0mm|YOffset=0mm|HoleType=Round|Shape=Rectangle|*
%AMROTATEDRECTD57*
4,1,4,0.9913,-0.4327,-0.0182,-1.0815,-0.9913,0.4327,0.0182,1.0815,0.9913,-0.4327,0.0*
%
%ADD57ROTATEDRECTD57*%

G04:AMPARAMS|DCode=58|XSize=1.8mm|YSize=1.2mm|CornerRadius=0mm|HoleSize=0mm|Usage=FLASHONLY|Rotation=155.455|XOffset=0mm|YOffset=0mm|HoleType=Round|Shape=Rectangle|*
%AMROTATEDRECTD58*
4,1,4,1.0679,0.1719,0.5694,-0.9197,-1.0679,-0.1719,-0.5694,0.9197,1.0679,0.1719,0.0*
%
%ADD58ROTATEDRECTD58*%

G04:AMPARAMS|DCode=59|XSize=1.8mm|YSize=1.2mm|CornerRadius=0mm|HoleSize=0mm|Usage=FLASHONLY|Rotation=188.182|XOffset=0mm|YOffset=0mm|HoleType=Round|Shape=Rectangle|*
%AMROTATEDRECTD59*
4,1,4,0.8055,0.7220,0.9762,-0.4658,-0.8055,-0.7220,-0.9762,0.4658,0.8055,0.7220,0.0*
%
%ADD59ROTATEDRECTD59*%

G04:AMPARAMS|DCode=60|XSize=1.15mm|YSize=1.8mm|CornerRadius=0mm|HoleSize=0mm|Usage=FLASHONLY|Rotation=278.182|XOffset=0mm|YOffset=0mm|HoleType=Round|Shape=Rectangle|*
%AMROTATEDRECTD60*
4,1,4,-0.9727,0.4411,0.8090,0.6972,0.9727,-0.4411,-0.8090,-0.6972,-0.9727,0.4411,0.0*
%
%ADD60ROTATEDRECTD60*%

G04:AMPARAMS|DCode=61|XSize=1.8mm|YSize=1.2mm|CornerRadius=0mm|HoleSize=0mm|Usage=FLASHONLY|Rotation=220.909|XOffset=0mm|YOffset=0mm|HoleType=Round|Shape=Rectangle|*
%AMROTATEDRECTD61*
4,1,4,0.2873,1.0428,1.0731,0.1359,-0.2873,-1.0428,-1.0731,-0.1359,0.2873,1.0428,0.0*
%
%ADD61ROTATEDRECTD61*%

G04:AMPARAMS|DCode=62|XSize=1.15mm|YSize=1.8mm|CornerRadius=0mm|HoleSize=0mm|Usage=FLASHONLY|Rotation=310.909|XOffset=0mm|YOffset=0mm|HoleType=Round|Shape=Rectangle|*
%AMROTATEDRECTD62*
4,1,4,-1.0567,-0.1548,0.3036,1.0239,1.0567,0.1548,-0.3036,-1.0239,-1.0567,-0.1548,0.0*
%
%ADD62ROTATEDRECTD62*%

G04:AMPARAMS|DCode=63|XSize=1.15mm|YSize=1.8mm|CornerRadius=0mm|HoleSize=0mm|Usage=FLASHONLY|Rotation=163.636|XOffset=0mm|YOffset=0mm|HoleType=Round|Shape=Rectangle|*
%AMROTATEDRECTD63*
4,1,4,0.8053,0.7016,0.2982,-1.0255,-0.8053,-0.7016,-0.2982,1.0255,0.8053,0.7016,0.0*
%
%ADD63ROTATEDRECTD63*%

G04:AMPARAMS|DCode=64|XSize=1.8mm|YSize=1.2mm|CornerRadius=0mm|HoleSize=0mm|Usage=FLASHONLY|Rotation=253.636|XOffset=0mm|YOffset=0mm|HoleType=Round|Shape=Rectangle|*
%AMROTATEDRECTD64*
4,1,4,-0.3221,1.0326,0.8293,0.6945,0.3221,-1.0326,-0.8293,-0.6945,-0.3221,1.0326,0.0*
%
%ADD64ROTATEDRECTD64*%

G04:AMPARAMS|DCode=65|XSize=1.15mm|YSize=1.8mm|CornerRadius=0mm|HoleSize=0mm|Usage=FLASHONLY|Rotation=65.455|XOffset=0mm|YOffset=0mm|HoleType=Round|Shape=Rectangle|*
%AMROTATEDRECTD65*
4,1,4,0.5798,-0.8969,-1.0575,-0.1492,-0.5798,0.8969,1.0575,0.1492,0.5798,-0.8969,0.0*
%
%ADD65ROTATEDRECTD65*%

G04:AMPARAMS|DCode=66|XSize=9mm|YSize=5mm|CornerRadius=0mm|HoleSize=0mm|Usage=FLASHONLY|Rotation=163.635|XOffset=0mm|YOffset=0mm|HoleType=Round|Shape=Round|*
%AMOVALD66*
21,1,4.0000,5.0000,0.0000,0.0000,163.6*
1,1,5.0000,1.9190,-0.5635*
1,1,5.0000,-1.9190,0.5635*
%
%ADD66OVALD66*%

%ADD67C,1.6000*%
G04:AMPARAMS|DCode=68|XSize=9mm|YSize=5mm|CornerRadius=0mm|HoleSize=0mm|Usage=FLASHONLY|Rotation=327.270|XOffset=0mm|YOffset=0mm|HoleType=Round|Shape=Round|*
%AMOVALD68*
21,1,4.0000,5.0000,0.0000,0.0000,327.3*
1,1,5.0000,-1.6825,1.0814*
1,1,5.0000,1.6825,-1.0814*
%
%ADD68OVALD68*%

G04:AMPARAMS|DCode=69|XSize=9mm|YSize=5mm|CornerRadius=0mm|HoleSize=0mm|Usage=FLASHONLY|Rotation=294.543|XOffset=0mm|YOffset=0mm|HoleType=Round|Shape=Round|*
%AMOVALD69*
21,1,4.0000,5.0000,0.0000,0.0000,294.5*
1,1,5.0000,-0.8307,1.8193*
1,1,5.0000,0.8307,-1.8193*
%
%ADD69OVALD69*%

G04:AMPARAMS|DCode=70|XSize=9mm|YSize=5mm|CornerRadius=0mm|HoleSize=0mm|Usage=FLASHONLY|Rotation=261.816|XOffset=0mm|YOffset=0mm|HoleType=Round|Shape=Round|*
%AMOVALD70*
21,1,4.0000,5.0000,0.0000,0.0000,261.8*
1,1,5.0000,0.2847,1.9796*
1,1,5.0000,-0.2847,-1.9796*
%
%ADD70OVALD70*%

G04:AMPARAMS|DCode=71|XSize=9mm|YSize=5mm|CornerRadius=0mm|HoleSize=0mm|Usage=FLASHONLY|Rotation=229.089|XOffset=0mm|YOffset=0mm|HoleType=Round|Shape=Round|*
%AMOVALD71*
21,1,4.0000,5.0000,0.0000,0.0000,229.1*
1,1,5.0000,1.3098,1.5115*
1,1,5.0000,-1.3098,-1.5115*
%
%ADD71OVALD71*%

G04:AMPARAMS|DCode=72|XSize=9mm|YSize=5mm|CornerRadius=0mm|HoleSize=0mm|Usage=FLASHONLY|Rotation=196.362|XOffset=0mm|YOffset=0mm|HoleType=Round|Shape=Round|*
%AMOVALD72*
21,1,4.0000,5.0000,0.0000,0.0000,196.4*
1,1,5.0000,1.9190,0.5634*
1,1,5.0000,-1.9190,-0.5634*
%
%ADD72OVALD72*%

G04:AMPARAMS|DCode=73|XSize=9mm|YSize=5mm|CornerRadius=0mm|HoleSize=0mm|Usage=FLASHONLY|Rotation=130.908|XOffset=0mm|YOffset=0mm|HoleType=Round|Shape=Round|*
%AMOVALD73*
21,1,4.0000,5.0000,0.0000,0.0000,130.9*
1,1,5.0000,1.3097,-1.5115*
1,1,5.0000,-1.3097,1.5115*
%
%ADD73OVALD73*%

G04:AMPARAMS|DCode=74|XSize=9mm|YSize=5mm|CornerRadius=0mm|HoleSize=0mm|Usage=FLASHONLY|Rotation=98.181|XOffset=0mm|YOffset=0mm|HoleType=Round|Shape=Round|*
%AMOVALD74*
21,1,4.0000,5.0000,0.0000,0.0000,98.2*
1,1,5.0000,0.2846,-1.9797*
1,1,5.0000,-0.2846,1.9797*
%
%ADD74OVALD74*%

G04:AMPARAMS|DCode=75|XSize=9mm|YSize=5mm|CornerRadius=0mm|HoleSize=0mm|Usage=FLASHONLY|Rotation=65.454|XOffset=0mm|YOffset=0mm|HoleType=Round|Shape=Round|*
%AMOVALD75*
21,1,4.0000,5.0000,0.0000,0.0000,65.5*
1,1,5.0000,-0.8309,-1.8193*
1,1,5.0000,0.8309,1.8193*
%
%ADD75OVALD75*%

G04:AMPARAMS|DCode=76|XSize=9mm|YSize=5mm|CornerRadius=0mm|HoleSize=0mm|Usage=FLASHONLY|Rotation=32.727|XOffset=0mm|YOffset=0mm|HoleType=Round|Shape=Round|*
%AMOVALD76*
21,1,4.0000,5.0000,0.0000,0.0000,32.7*
1,1,5.0000,-1.6825,-1.0813*
1,1,5.0000,1.6825,1.0813*
%
%ADD76OVALD76*%

%ADD77O,9.0000X5.0000*%
%ADD78C,8.0000*%
%ADD79C,0.6000*%
D45*
X428345Y127753D02*
G03*
X319578Y365871I144156J209748D01*
G01*
X386174Y423476D02*
X389696Y435471D01*
X462235Y510564D02*
X471682Y518750D01*
X684119Y509695D02*
X695489Y504502D01*
X573304Y542705D02*
X585677Y544484D01*
X759495Y422015D02*
X766253Y411499D01*
X775502Y295001D02*
Y307502D01*
X720300Y191997D02*
X727058Y202513D01*
X407444Y211914D02*
X416892Y203727D01*
X501544Y142614D02*
X513917Y140835D01*
X618172Y135189D02*
X629543Y140382D01*
X420560Y512679D02*
X420644Y512752D01*
X441427Y530760D01*
X441600Y530910D01*
X752725Y486189D02*
X770135Y497377D01*
X804178Y365148D02*
X825197D01*
X643728Y560021D02*
X652325Y578846D01*
X752453Y486014D02*
X752725Y486189D01*
X643594Y559727D02*
X643728Y560021D01*
X782348Y235505D02*
X782620Y235330D01*
X800030Y224142D01*
X694027Y137951D02*
X702624Y119126D01*
X693892Y138245D02*
X694027Y137951D01*
X566850Y103927D02*
X566896Y104247D01*
X509272Y584031D02*
X512263Y563226D01*
X509272Y584031D02*
Y584031D01*
X386025Y510711D02*
X399789Y494826D01*
X321983Y382398D02*
X342150Y376476D01*
X563905Y83442D02*
X566850Y103927D01*
X441467Y144061D02*
X441679Y144305D01*
X427915Y128421D02*
X441467Y144061D01*
X319482Y365918D02*
X355000Y330400D01*
X432900Y289191D02*
X443085Y299376D01*
X390697Y289191D02*
X432900D01*
X374344Y305544D02*
X390697Y289191D01*
X355311Y305544D02*
X374344D01*
X751454Y186835D02*
X767673Y212072D01*
X656831Y152845D02*
X681846Y164269D01*
X644368Y180133D02*
X656831Y152844D01*
X641590Y114003D02*
X668879Y126465D01*
X509790Y112130D02*
X539485Y107860D01*
X543611Y136566D02*
X547880Y166260D01*
X543611Y136566D02*
X570832Y132652D01*
X397901Y181811D02*
X420573Y162165D01*
X439563Y184082D02*
X459209Y206755D01*
X439564Y184083D02*
X460347Y166074D01*
X718039Y243969D02*
X743277Y227750D01*
X743276Y227751D02*
X758144Y250885D01*
X804502Y307502D02*
Y337502D01*
X745502Y337501D02*
X775502D01*
X775502Y337501D02*
Y365001D01*
X767672Y462931D02*
X783892Y437694D01*
X718039Y431032D02*
X743277Y447252D01*
X728408Y470386D02*
X743276Y447252D01*
X668877Y548537D02*
X696166Y536075D01*
X644368Y494868D02*
X656831Y522157D01*
X631815Y533581D02*
X656830Y522157D01*
X369975Y368306D02*
X377723Y394692D01*
X543611Y538436D02*
X547880Y508741D01*
X516390Y534521D02*
X543610Y538435D01*
X539173Y567399D02*
X568868Y571668D01*
X439563Y490919D02*
X459209Y468246D01*
X418779Y472910D02*
X439562Y490918D01*
X349946Y403064D02*
X358398Y431849D01*
X377723Y394694D02*
X406507Y386242D01*
D46*
X399790Y180174D02*
D03*
X418781Y202091D02*
D03*
X439564Y184083D02*
D03*
X420573Y162166D02*
D03*
D47*
X441356Y144157D02*
D03*
X460347Y166074D02*
D03*
D48*
X512264Y111775D02*
D03*
X516391Y140480D02*
D03*
X543611Y136566D02*
D03*
X539484Y107861D02*
D03*
D49*
X566704Y103948D02*
D03*
X570832Y132652D02*
D03*
D50*
X643863Y115042D02*
D03*
X631816Y141421D02*
D03*
X656831Y152845D02*
D03*
X668878Y126466D02*
D03*
D51*
X693893Y137890D02*
D03*
X681846Y164269D02*
D03*
D52*
X743276Y227751D02*
D03*
X767673Y212072D02*
D03*
X752805Y188938D02*
D03*
X728409Y204616D02*
D03*
D53*
X782540Y235207D02*
D03*
X758144Y250885D02*
D03*
D54*
X804502Y310001D02*
D03*
X775502D02*
D03*
Y337501D02*
D03*
X804502D02*
D03*
D55*
Y365001D02*
D03*
X775502D02*
D03*
D56*
X743276Y447252D02*
D03*
X767672Y462930D02*
D03*
X782540Y439796D02*
D03*
X758143Y424117D02*
D03*
D57*
X752804Y486065D02*
D03*
X728408Y470386D02*
D03*
D58*
X643862Y559960D02*
D03*
X631815Y533581D02*
D03*
D59*
X512263Y563226D02*
D03*
X516390Y534521D02*
D03*
D60*
X543610Y538435D02*
D03*
X539483Y567140D02*
D03*
X566703Y571054D02*
D03*
X570830Y542349D02*
D03*
D61*
X399789Y494826D02*
D03*
X418780Y472909D02*
D03*
D62*
X439563Y490918D02*
D03*
X420572Y512835D02*
D03*
X441355Y530843D02*
D03*
X460346Y508927D02*
D03*
D63*
X358349Y431647D02*
D03*
X386174Y423476D02*
D03*
X377722Y394692D02*
D03*
X349897Y402862D02*
D03*
D64*
X342150Y376476D02*
D03*
X369975Y368306D02*
D03*
D65*
X693892Y537113D02*
D03*
X681845Y510733D02*
D03*
X656830Y522157D02*
D03*
X668877Y548536D02*
D03*
D66*
X442970Y375538D02*
D03*
D67*
X355000Y279600D02*
D03*
Y305000D02*
D03*
Y330400D02*
D03*
D68*
X686067Y264509D02*
D03*
D69*
X628577Y214698D02*
D03*
D70*
X553283Y203876D02*
D03*
D71*
X484091Y235478D02*
D03*
D72*
X442968Y299471D02*
D03*
D73*
X484096Y439529D02*
D03*
D74*
X553290Y471127D02*
D03*
D75*
X628583Y460300D02*
D03*
D76*
X686070Y410487D02*
D03*
D77*
X707501Y337501D02*
D03*
D78*
X572501D02*
D03*
X350000Y115000D02*
D03*
X795000D02*
D03*
Y560000D02*
D03*
X350000D02*
D03*
D79*
X720157Y191276D02*
D03*
X617262Y134581D02*
D03*
X500738Y142506D02*
D03*
X407054Y211771D02*
D03*
X775502Y295001D02*
D03*
X766253Y411499D02*
D03*
X695489Y504502D02*
D03*
X585677Y544484D02*
D03*
X471682Y518750D02*
D03*
X389505Y435527D02*
D03*
M02*
