G04*
G04 #@! TF.GenerationSoftware,Altium Limited,Altium Designer,21.9.2 (33)*
G04*
G04 Layer_Color=65535*
%FSLAX44Y44*%
%MOMM*%
G71*
G04*
G04 #@! TF.SameCoordinates,306BE07C-DE04-4A2C-8D75-E4C0B7DA88A3*
G04*
G04*
G04 #@! TF.FilePolarity,Positive*
G04*
G01*
G75*
%ADD10C,0.2000*%
%ADD11C,0.1500*%
D10*
X342750Y294300D02*
X344750Y292300D01*
X342750Y319700D02*
X344750Y317700D01*
X342750Y319700D02*
Y341100D01*
X367250Y319700D02*
Y341100D01*
X365250Y317700D02*
X367250Y319700D01*
X344750Y343100D02*
X365250D01*
X342750Y268900D02*
X344750Y266900D01*
X432184Y511650D02*
X440043Y502581D01*
X420092Y501172D02*
X427951Y492103D01*
X412056Y492885D02*
X418605Y485328D01*
X399964Y482408D02*
X406513Y474850D01*
X559994Y561502D02*
X561702Y549624D01*
X575831Y563779D02*
X577539Y551901D01*
X548611Y559865D02*
X550319Y547987D01*
X532774Y557588D02*
X534482Y545710D01*
X521533Y554962D02*
X522957Y545063D01*
X505696Y552685D02*
X507119Y542786D01*
X643038Y538899D02*
X647193Y547995D01*
X628484Y545546D02*
X632638Y554642D01*
X760969Y435443D02*
X771064Y441931D01*
X769619Y421983D02*
X779714Y428470D01*
X740725Y468792D02*
X749137Y474199D01*
X732075Y482253D02*
X740487Y487659D01*
X754751Y445117D02*
X764846Y451605D01*
X746101Y458577D02*
X756196Y465065D01*
X785002Y357001D02*
X795002D01*
X785002Y373002D02*
X795002D01*
X784002Y329501D02*
X796002D01*
X784002Y345501D02*
X796002D01*
X784002Y318001D02*
X796002D01*
X784002Y302001D02*
X796002D01*
X761811Y239019D02*
X770223Y233613D01*
X770461Y252479D02*
X778874Y247073D01*
X739884Y206751D02*
X749980Y200263D01*
X731234Y193291D02*
X741329Y186803D01*
X746102Y216425D02*
X756197Y209938D01*
X754752Y229885D02*
X764847Y223398D01*
X678515Y152304D02*
X682669Y143208D01*
X693069Y158951D02*
X697224Y149854D01*
X653085Y141790D02*
X658070Y130874D01*
X667639Y148436D02*
X672624Y137521D01*
X642624Y137013D02*
X647609Y126097D01*
X628070Y130366D02*
X633055Y119450D01*
X560138Y114489D02*
X561561Y124388D01*
X575975Y112212D02*
X577398Y122111D01*
X532775Y117413D02*
X534483Y129291D01*
X548613Y115136D02*
X550320Y127014D01*
X521393Y119050D02*
X523100Y130928D01*
X505555Y121327D02*
X507263Y133205D01*
X441531Y156576D02*
X448080Y164133D01*
X453623Y146098D02*
X460172Y153655D01*
X420093Y173829D02*
X427952Y182897D01*
X432185Y163351D02*
X440044Y172420D01*
X411402Y181359D02*
X419261Y190428D01*
X399310Y191837D02*
X407169Y200906D01*
X342750Y341100D02*
X344750Y343100D01*
X365250D02*
X367250Y341100D01*
X342750Y268900D02*
X344750Y266900D01*
X342750Y268900D02*
Y290300D01*
X344750Y292300D01*
X365250D02*
X367250Y290300D01*
Y268900D02*
Y290300D01*
X365250Y266900D02*
X367250Y268900D01*
X344750Y266900D02*
X365250D01*
X344750Y292300D02*
X365250D01*
X367250Y294300D01*
Y315700D01*
X365250Y317700D02*
X367250Y315700D01*
X344750Y317700D02*
X365250D01*
X342750Y315700D02*
X344750Y317700D01*
X342750Y294300D02*
Y315700D01*
X667638Y526566D02*
X672623Y537481D01*
X653084Y533212D02*
X658069Y544128D01*
X678099Y521788D02*
X683084Y532704D01*
X692653Y515142D02*
X697638Y526057D01*
X353519Y381476D02*
X363114Y378658D01*
X349011Y366124D02*
X358606Y363306D01*
X360306Y408143D02*
X371820Y404762D01*
X355798Y392791D02*
X367312Y389411D01*
X364250Y421576D02*
X375764Y418195D01*
X368758Y436928D02*
X380272Y433547D01*
X440876Y519181D02*
X448734Y510112D01*
X452967Y529659D02*
X460826Y520589D01*
X634342Y301173D02*
X642340D01*
Y299173D01*
X634342Y291176D01*
Y289177D01*
X601826Y270936D02*
X603826Y272936D01*
X607824D01*
X609824Y270936D01*
Y268937D01*
X607824Y266938D01*
X609824Y264938D01*
Y262939D01*
X607824Y260940D01*
X603826D01*
X601826Y262939D01*
Y264938D01*
X603826Y266938D01*
X601826Y268937D01*
Y270936D01*
X603826Y266938D02*
X607824D01*
X559206Y256764D02*
X561205Y254765D01*
X565204D01*
X567203Y256764D01*
Y264761D01*
X565204Y266761D01*
X561205D01*
X559206Y264761D01*
Y262762D01*
X561205Y260763D01*
X567203D01*
X520013Y272612D02*
X524012D01*
X522012D01*
Y284608D01*
X520013Y282609D01*
X530010D02*
X532009Y284608D01*
X536008D01*
X538007Y282609D01*
Y274611D01*
X536008Y272612D01*
X532009D01*
X530010Y274611D01*
Y282609D01*
X496690Y308815D02*
X500689D01*
X498690D01*
Y320811D01*
X496690Y318812D01*
X506687Y308815D02*
X510686D01*
X508686D01*
Y320811D01*
X506687Y318812D01*
X496643Y351881D02*
X500642D01*
X498642D01*
Y363877D01*
X496643Y361877D01*
X527883Y388135D02*
X519886D01*
X527883Y396133D01*
Y398132D01*
X525884Y400131D01*
X521885D01*
X519886Y398132D01*
X559040Y416065D02*
X561039Y418064D01*
X565038D01*
X567037Y416065D01*
Y414066D01*
X565038Y412066D01*
X563038D01*
X565038D01*
X567037Y410067D01*
Y408068D01*
X565038Y406068D01*
X561039D01*
X559040Y408068D01*
X607672Y399987D02*
Y411983D01*
X601673Y405985D01*
X609671D01*
X642249Y383818D02*
X634252D01*
Y377820D01*
X638250Y379819D01*
X640250D01*
X642249Y377820D01*
Y373821D01*
X640250Y371822D01*
X636251D01*
X634252Y373821D01*
X654428Y342510D02*
X650430Y340511D01*
X646431Y336512D01*
Y332514D01*
X648430Y330514D01*
X652429D01*
X654428Y332514D01*
Y334513D01*
X652429Y336512D01*
X646431D01*
X315000Y218751D02*
Y210754D01*
X318999Y206755D01*
X322997Y210754D01*
Y218751D01*
X326996Y216752D02*
X328996Y218751D01*
X332994D01*
X334994Y216752D01*
Y208754D01*
X332994Y206755D01*
X328996D01*
X326996Y208754D01*
Y216752D01*
X338992Y206755D02*
Y208754D01*
X340992D01*
Y206755D01*
X338992D01*
X348989D02*
X352988D01*
X350988D01*
Y218751D01*
X348989Y216752D01*
X315000Y227500D02*
Y239496D01*
X322997Y227500D01*
Y239496D01*
X326996Y235497D02*
Y229499D01*
X328996Y227500D01*
X334994D01*
Y235497D01*
X346990D02*
X340992D01*
X338992Y233498D01*
Y229499D01*
X340992Y227500D01*
X346990D01*
X358986Y235497D02*
X352988D01*
X350988Y233498D01*
Y229499D01*
X352988Y227500D01*
X358986D01*
X362985D02*
X366983D01*
X364984D01*
Y235497D01*
X362985D01*
X372981Y239496D02*
Y227500D01*
X380979D01*
X318573Y308676D02*
X316907Y310342D01*
X313575D01*
X311909Y308676D01*
Y302012D01*
X313575Y300345D01*
X316907D01*
X318573Y302012D01*
Y305344D01*
X315241D01*
X321906Y300345D02*
Y310342D01*
X328570Y300345D01*
Y310342D01*
X331903D02*
Y300345D01*
X336901D01*
X338567Y302012D01*
Y308676D01*
X336901Y310342D01*
X331903D01*
X312100Y326270D02*
Y336267D01*
X317098D01*
X318764Y334601D01*
Y331269D01*
X317098Y329603D01*
X312100D01*
X322096Y336267D02*
Y326270D01*
X328761D01*
X338758Y334601D02*
X337092Y336267D01*
X333759D01*
X332093Y334601D01*
Y332935D01*
X333759Y331269D01*
X337092D01*
X338758Y329603D01*
Y327936D01*
X337092Y326270D01*
X333759D01*
X332093Y327936D01*
X320868Y284163D02*
Y277499D01*
X324201Y274167D01*
X327533Y277499D01*
Y284163D01*
X330865D02*
Y274167D01*
Y279165D01*
X337530D01*
Y284163D01*
Y274167D01*
D11*
X421553Y147015D02*
X416316Y140971D01*
X413294Y143590D01*
X413160Y145470D01*
X414905Y147484D01*
X416786Y147619D01*
X419808Y145000D01*
X417793Y146746D02*
X417524Y150506D01*
X411480Y155744D02*
X415509Y152252D01*
X407989Y151714D01*
X407116Y150707D01*
X407250Y148827D01*
X409265Y147081D01*
X411145Y147215D01*
X405101Y152453D02*
X403221Y152318D01*
X401206Y154064D01*
X401072Y155944D01*
X404563Y159973D01*
X406443Y160108D01*
X408458Y158362D01*
X408592Y156482D01*
X405101Y152453D01*
X547823Y95616D02*
X546684Y87700D01*
X542726Y88269D01*
X541597Y89778D01*
X541976Y92417D01*
X543485Y93547D01*
X547443Y92978D01*
X544804Y93357D02*
X542545Y96375D01*
X539907Y96755D02*
X537268Y97134D01*
X538587Y96944D01*
X537449Y89028D01*
X538958Y90158D01*
X533120Y96384D02*
X531991Y97893D01*
X529352Y98272D01*
X527843Y97142D01*
X527084Y91865D01*
X528214Y90356D01*
X530852Y89977D01*
X532361Y91106D01*
X532551Y92426D01*
X531422Y93935D01*
X527463Y94504D01*
X682558Y120573D02*
X685881Y113298D01*
X682243Y111637D01*
X680477Y112296D01*
X679370Y114721D01*
X680028Y116487D01*
X683666Y118148D01*
X681241Y117041D02*
X677709Y118358D01*
X675284Y117251D02*
X672859Y116143D01*
X674071Y116697D01*
X677393Y109422D01*
X678052Y111188D01*
X671990Y108420D02*
X671331Y106654D01*
X668906Y105546D01*
X667140Y106205D01*
X666586Y107417D01*
X667245Y109184D01*
X665479Y109842D01*
X664925Y111055D01*
X665584Y112821D01*
X668009Y113928D01*
X669775Y113270D01*
X670329Y112057D01*
X669670Y110291D01*
X671436Y109632D01*
X671990Y108420D01*
X669670Y110291D02*
X667245Y109184D01*
X782403Y214488D02*
X789130Y210165D01*
X786969Y206800D01*
X785127Y206400D01*
X782884Y207841D01*
X782483Y209683D01*
X784645Y213047D01*
X783204Y210804D02*
X779520Y210003D01*
X778079Y207760D02*
X776638Y205518D01*
X777358Y206639D01*
X784086Y202315D01*
X783685Y204157D01*
X781204Y197830D02*
X778321Y193345D01*
X777200Y194065D01*
X775597Y201433D01*
X774476Y202154D01*
X815322Y347497D02*
X823319D01*
Y343499D01*
X821986Y342166D01*
X819321D01*
X817988Y343499D01*
Y347497D01*
Y344832D02*
X815322Y342166D01*
Y339500D02*
Y336834D01*
Y338167D01*
X823319D01*
X821986Y339500D01*
X823319Y327504D02*
X821986Y330170D01*
X819321Y332836D01*
X816655D01*
X815322Y331503D01*
Y328837D01*
X816655Y327504D01*
X817988D01*
X819321Y328837D01*
Y332836D01*
X771568Y477318D02*
X778296Y481642D01*
X780458Y478278D01*
X780057Y476436D01*
X777815Y474995D01*
X775973Y475396D01*
X773811Y478759D01*
X775252Y476517D02*
X774451Y472833D01*
X775892Y470590D02*
X777333Y468348D01*
X776613Y469469D01*
X783341Y473793D01*
X781499Y474193D01*
X789106Y464822D02*
X786223Y469308D01*
X782859Y467146D01*
X785422Y465624D01*
X786142Y464502D01*
X785742Y462660D01*
X783499Y461219D01*
X781657Y461620D01*
X780216Y463862D01*
X780617Y465704D01*
X664782Y563634D02*
X668104Y570909D01*
X671741Y569248D01*
X672400Y567482D01*
X671293Y565057D01*
X669527Y564398D01*
X665889Y566059D01*
X668314Y564952D02*
X669632Y561419D01*
X672057Y560312D02*
X674482Y559205D01*
X673269Y559758D01*
X676591Y567033D01*
X674825Y566374D01*
X681756Y555882D02*
X685078Y563157D01*
X679780Y561181D01*
X684630Y558966D01*
X527865Y577699D02*
X526727Y585615D01*
X530685Y586184D01*
X532194Y585055D01*
X532574Y582416D01*
X531444Y580907D01*
X527486Y580338D01*
X530125Y580717D02*
X533143Y578458D01*
X535781Y578837D02*
X538420Y579217D01*
X537101Y579027D01*
X535962Y586943D01*
X534833Y585434D01*
X541429Y586382D02*
X542559Y587892D01*
X545198Y588271D01*
X546707Y587141D01*
X546897Y585822D01*
X545767Y584313D01*
X544448Y584123D01*
X545767Y584313D01*
X547276Y583183D01*
X547466Y581864D01*
X546336Y580355D01*
X543697Y579976D01*
X542188Y581105D01*
X405586Y514864D02*
X400349Y520908D01*
X403371Y523527D01*
X405251Y523392D01*
X406997Y521377D01*
X406862Y519497D01*
X403840Y516879D01*
X405855Y518624D02*
X409616Y518355D01*
X411630Y520101D02*
X413645Y521847D01*
X412638Y520974D01*
X407400Y527018D01*
X407266Y525138D01*
X420696Y527957D02*
X416667Y524465D01*
X417205Y531986D01*
X416332Y532994D01*
X414452Y533128D01*
X412437Y531382D01*
X412303Y529502D01*
X334732Y398285D02*
X327059Y400538D01*
X328185Y404375D01*
X329840Y405278D01*
X332397Y404527D01*
X333301Y402873D01*
X332174Y399036D01*
X332925Y401594D02*
X336234Y403401D01*
X336985Y405959D02*
X337736Y408516D01*
X337361Y407237D01*
X329687Y409491D01*
X330591Y407836D01*
X338863Y412353D02*
X339614Y414911D01*
X339238Y413632D01*
X331565Y415885D01*
X332468Y414231D01*
X400036Y165193D02*
X394799Y159149D01*
X391777Y161767D01*
X391642Y163647D01*
X393388Y165662D01*
X395268Y165797D01*
X398290Y163178D01*
X396275Y164924D02*
X396006Y168684D01*
X393992Y170430D02*
X391977Y172176D01*
X392984Y171303D01*
X387747Y165259D01*
X389627Y165393D01*
X384591Y169757D02*
X382710Y169623D01*
X380696Y171369D01*
X380561Y173249D01*
X384053Y177278D01*
X385933Y177413D01*
X387948Y175667D01*
X388082Y173787D01*
X384591Y169757D01*
X517306Y100011D02*
X516168Y92095D01*
X512210Y92664D01*
X511080Y94173D01*
X511460Y96812D01*
X512968Y97942D01*
X516927Y97372D01*
X514288Y97752D02*
X512029Y100770D01*
X509200Y99830D02*
X508071Y101339D01*
X505432Y101718D01*
X503923Y100589D01*
X503164Y95311D01*
X504294Y93802D01*
X506932Y93423D01*
X508442Y94552D01*
X508631Y95872D01*
X507501Y97381D01*
X503544Y97950D01*
X654447Y107909D02*
X657769Y100634D01*
X654132Y98973D01*
X652366Y99632D01*
X651258Y102057D01*
X651917Y103823D01*
X655555Y105484D01*
X653130Y104377D02*
X649597Y105694D01*
X649941Y98525D02*
X649282Y96759D01*
X646857Y95651D01*
X645091Y96310D01*
X644537Y97522D01*
X645196Y99289D01*
X643430Y99947D01*
X642876Y101160D01*
X643535Y102926D01*
X645960Y104033D01*
X647726Y103375D01*
X648280Y102162D01*
X647621Y100396D01*
X649387Y99737D01*
X649941Y98525D01*
X647621Y100396D02*
X645196Y99289D01*
X765479Y189356D02*
X772207Y185032D01*
X770045Y181668D01*
X768203Y181268D01*
X765960Y182709D01*
X765559Y184551D01*
X767721Y187915D01*
X766280Y185672D02*
X762596Y184871D01*
X767883Y178304D02*
X765000Y173819D01*
X763879Y174540D01*
X762276Y181908D01*
X761155Y182628D01*
X815422Y316666D02*
X823419D01*
Y312667D01*
X822086Y311334D01*
X819420D01*
X818088Y312667D01*
Y316666D01*
Y314000D02*
X815422Y311334D01*
X823419Y303337D02*
X822086Y306003D01*
X819420Y308668D01*
X816755D01*
X815422Y307336D01*
Y304670D01*
X816755Y303337D01*
X818088D01*
X819420Y304670D01*
Y308668D01*
X788182Y451343D02*
X794910Y455667D01*
X797072Y452303D01*
X796671Y450461D01*
X794429Y449020D01*
X792587Y449421D01*
X790425Y452785D01*
X791866Y450542D02*
X791065Y446858D01*
X802116Y444454D02*
X799234Y448939D01*
X795870Y446777D01*
X798432Y445256D01*
X799153Y444134D01*
X798752Y442292D01*
X796510Y440851D01*
X794668Y441252D01*
X793226Y443494D01*
X793627Y445336D01*
X692915Y551017D02*
X696237Y558292D01*
X699875Y556631D01*
X700534Y554865D01*
X699426Y552440D01*
X697660Y551781D01*
X694023Y553442D01*
X696448Y552335D02*
X697765Y548802D01*
X703827Y546034D02*
X707150Y553309D01*
X701851Y551332D01*
X706701Y549118D01*
X558444Y581667D02*
X557306Y589583D01*
X561264Y590152D01*
X562773Y589022D01*
X563152Y586384D01*
X562023Y584875D01*
X558065Y584306D01*
X560703Y584685D02*
X563721Y582426D01*
X565412Y589402D02*
X566541Y590911D01*
X569180Y591290D01*
X570689Y590161D01*
X570879Y588841D01*
X569749Y587332D01*
X568430Y587143D01*
X569749Y587332D01*
X571258Y586203D01*
X571448Y584883D01*
X570318Y583374D01*
X567679Y582995D01*
X566170Y584124D01*
X428986Y534941D02*
X423749Y540985D01*
X426771Y543603D01*
X428652Y543469D01*
X430397Y541454D01*
X430263Y539574D01*
X427241Y536955D01*
X429255Y538701D02*
X433016Y538432D01*
X439060Y543669D02*
X435031Y540178D01*
X435568Y547699D01*
X434696Y548706D01*
X432815Y548841D01*
X430801Y547095D01*
X430666Y545215D01*
X344328Y430207D02*
X336655Y432460D01*
X337781Y436297D01*
X339436Y437200D01*
X341993Y436449D01*
X342897Y434795D01*
X341770Y430958D01*
X342521Y433516D02*
X345830Y435323D01*
X346581Y437880D02*
X347332Y440438D01*
X346957Y439159D01*
X339283Y441413D01*
X340187Y439758D01*
X432300Y128668D02*
X432435Y126788D01*
X434450Y125042D01*
X436330Y125177D01*
X439821Y129206D01*
X439687Y131086D01*
X437672Y132832D01*
X435792Y132697D01*
X434650Y135451D02*
X432635Y137196D01*
X433643Y136323D01*
X428406Y130279D01*
X430286Y130414D01*
X425249Y134778D02*
X423369Y134644D01*
X421354Y136390D01*
X421220Y138270D01*
X424711Y142299D01*
X426591Y142434D01*
X428606Y140688D01*
X428741Y138808D01*
X425249Y134778D01*
X565215Y86391D02*
X566345Y84882D01*
X568983Y84503D01*
X570493Y85632D01*
X571251Y90910D01*
X570122Y92419D01*
X567483Y92798D01*
X565974Y91668D01*
X563335Y92048D02*
X562206Y93557D01*
X559567Y93936D01*
X558058Y92807D01*
X557299Y87529D01*
X558429Y86020D01*
X561068Y85641D01*
X562576Y86770D01*
X562766Y88090D01*
X561637Y89599D01*
X557679Y90168D01*
X702496Y122613D02*
X704262Y121954D01*
X706687Y123062D01*
X707346Y124828D01*
X705131Y129678D01*
X703365Y130337D01*
X700940Y129229D01*
X700282Y127463D01*
X700071Y121506D02*
X699413Y119740D01*
X696988Y118632D01*
X695222Y119291D01*
X694668Y120503D01*
X695327Y122269D01*
X693560Y122928D01*
X693007Y124141D01*
X693665Y125907D01*
X696090Y127014D01*
X697857Y126356D01*
X698410Y125143D01*
X697751Y123377D01*
X699518Y122718D01*
X700071Y121506D01*
X697751Y123377D02*
X695327Y122269D01*
X798122Y226952D02*
X799964Y227353D01*
X801405Y229595D01*
X801005Y231437D01*
X796519Y234320D01*
X794678Y233919D01*
X793236Y231676D01*
X793637Y229834D01*
X797802Y223989D02*
X794920Y219503D01*
X793799Y220224D01*
X792196Y227592D01*
X791074Y228312D01*
X821576Y366481D02*
X822909Y367814D01*
Y370480D01*
X821576Y371813D01*
X816245D01*
X814912Y370480D01*
Y367814D01*
X816245Y366481D01*
X822909Y358484D02*
X821576Y361150D01*
X818911Y363815D01*
X816245D01*
X814912Y362482D01*
Y359817D01*
X816245Y358484D01*
X817578D01*
X818911Y359817D01*
Y363815D01*
X767451Y497062D02*
X767851Y498904D01*
X766410Y501147D01*
X764568Y501547D01*
X760083Y498665D01*
X759682Y496823D01*
X761124Y494580D01*
X762965Y494179D01*
X772896Y491055D02*
X770013Y495540D01*
X766649Y493378D01*
X769212Y491856D01*
X769932Y490735D01*
X769532Y488893D01*
X767289Y487452D01*
X765447Y487852D01*
X764006Y490095D01*
X764407Y491937D01*
X649845Y576624D02*
X649186Y578390D01*
X646761Y579497D01*
X644995Y578839D01*
X642780Y573989D01*
X643439Y572223D01*
X645864Y571115D01*
X647630Y571774D01*
X653139Y567793D02*
X656461Y575068D01*
X651162Y573091D01*
X656012Y570877D01*
X508317Y581305D02*
X506808Y582434D01*
X504169Y582055D01*
X503040Y580546D01*
X503798Y575268D01*
X505308Y574139D01*
X507946Y574518D01*
X509076Y576027D01*
X510956Y581684D02*
X512085Y583193D01*
X514724Y583572D01*
X516233Y582443D01*
X516423Y581123D01*
X515293Y579614D01*
X513974Y579425D01*
X515293Y579614D01*
X516802Y578485D01*
X516992Y577165D01*
X515862Y575656D01*
X513223Y575277D01*
X511714Y576407D01*
X386944Y507614D02*
X385064Y507749D01*
X383050Y506003D01*
X382915Y504123D01*
X386406Y500093D01*
X388287Y499959D01*
X390301Y501705D01*
X390436Y503585D01*
X397353Y507815D02*
X393323Y504323D01*
X393861Y511844D01*
X392988Y512851D01*
X391108Y512986D01*
X389094Y511240D01*
X388959Y509360D01*
X324154Y381760D02*
X322500Y380856D01*
X321749Y378299D01*
X322652Y376644D01*
X327768Y375142D01*
X329422Y376045D01*
X330173Y378603D01*
X329270Y380258D01*
X331300Y382440D02*
X332051Y384998D01*
X331675Y383719D01*
X324002Y385972D01*
X324905Y384318D01*
M02*
