G04*
G04 #@! TF.GenerationSoftware,Altium Limited,Altium Designer,21.9.2 (33)*
G04*
G04 Layer_Physical_Order=2*
G04 Layer_Color=16711680*
%FSLAX44Y44*%
%MOMM*%
G71*
G04*
G04 #@! TF.SameCoordinates,306BE07C-DE04-4A2C-8D75-E4C0B7DA88A3*
G04*
G04*
G04 #@! TF.FilePolarity,Positive*
G04*
G01*
G75*
%ADD45C,0.5000*%
G04:AMPARAMS|DCode=66|XSize=9mm|YSize=5mm|CornerRadius=0mm|HoleSize=0mm|Usage=FLASHONLY|Rotation=163.635|XOffset=0mm|YOffset=0mm|HoleType=Round|Shape=Round|*
%AMOVALD66*
21,1,4.0000,5.0000,0.0000,0.0000,163.6*
1,1,5.0000,1.9190,-0.5635*
1,1,5.0000,-1.9190,0.5635*
%
%ADD66OVALD66*%

%ADD67C,1.6000*%
G04:AMPARAMS|DCode=68|XSize=9mm|YSize=5mm|CornerRadius=0mm|HoleSize=0mm|Usage=FLASHONLY|Rotation=327.270|XOffset=0mm|YOffset=0mm|HoleType=Round|Shape=Round|*
%AMOVALD68*
21,1,4.0000,5.0000,0.0000,0.0000,327.3*
1,1,5.0000,-1.6825,1.0814*
1,1,5.0000,1.6825,-1.0814*
%
%ADD68OVALD68*%

G04:AMPARAMS|DCode=69|XSize=9mm|YSize=5mm|CornerRadius=0mm|HoleSize=0mm|Usage=FLASHONLY|Rotation=294.543|XOffset=0mm|YOffset=0mm|HoleType=Round|Shape=Round|*
%AMOVALD69*
21,1,4.0000,5.0000,0.0000,0.0000,294.5*
1,1,5.0000,-0.8307,1.8193*
1,1,5.0000,0.8307,-1.8193*
%
%ADD69OVALD69*%

G04:AMPARAMS|DCode=70|XSize=9mm|YSize=5mm|CornerRadius=0mm|HoleSize=0mm|Usage=FLASHONLY|Rotation=261.816|XOffset=0mm|YOffset=0mm|HoleType=Round|Shape=Round|*
%AMOVALD70*
21,1,4.0000,5.0000,0.0000,0.0000,261.8*
1,1,5.0000,0.2847,1.9796*
1,1,5.0000,-0.2847,-1.9796*
%
%ADD70OVALD70*%

G04:AMPARAMS|DCode=71|XSize=9mm|YSize=5mm|CornerRadius=0mm|HoleSize=0mm|Usage=FLASHONLY|Rotation=229.089|XOffset=0mm|YOffset=0mm|HoleType=Round|Shape=Round|*
%AMOVALD71*
21,1,4.0000,5.0000,0.0000,0.0000,229.1*
1,1,5.0000,1.3098,1.5115*
1,1,5.0000,-1.3098,-1.5115*
%
%ADD71OVALD71*%

G04:AMPARAMS|DCode=72|XSize=9mm|YSize=5mm|CornerRadius=0mm|HoleSize=0mm|Usage=FLASHONLY|Rotation=196.362|XOffset=0mm|YOffset=0mm|HoleType=Round|Shape=Round|*
%AMOVALD72*
21,1,4.0000,5.0000,0.0000,0.0000,196.4*
1,1,5.0000,1.9190,0.5634*
1,1,5.0000,-1.9190,-0.5634*
%
%ADD72OVALD72*%

G04:AMPARAMS|DCode=73|XSize=9mm|YSize=5mm|CornerRadius=0mm|HoleSize=0mm|Usage=FLASHONLY|Rotation=130.908|XOffset=0mm|YOffset=0mm|HoleType=Round|Shape=Round|*
%AMOVALD73*
21,1,4.0000,5.0000,0.0000,0.0000,130.9*
1,1,5.0000,1.3097,-1.5115*
1,1,5.0000,-1.3097,1.5115*
%
%ADD73OVALD73*%

G04:AMPARAMS|DCode=74|XSize=9mm|YSize=5mm|CornerRadius=0mm|HoleSize=0mm|Usage=FLASHONLY|Rotation=98.181|XOffset=0mm|YOffset=0mm|HoleType=Round|Shape=Round|*
%AMOVALD74*
21,1,4.0000,5.0000,0.0000,0.0000,98.2*
1,1,5.0000,0.2846,-1.9797*
1,1,5.0000,-0.2846,1.9797*
%
%ADD74OVALD74*%

G04:AMPARAMS|DCode=75|XSize=9mm|YSize=5mm|CornerRadius=0mm|HoleSize=0mm|Usage=FLASHONLY|Rotation=65.454|XOffset=0mm|YOffset=0mm|HoleType=Round|Shape=Round|*
%AMOVALD75*
21,1,4.0000,5.0000,0.0000,0.0000,65.5*
1,1,5.0000,-0.8309,-1.8193*
1,1,5.0000,0.8309,1.8193*
%
%ADD75OVALD75*%

G04:AMPARAMS|DCode=76|XSize=9mm|YSize=5mm|CornerRadius=0mm|HoleSize=0mm|Usage=FLASHONLY|Rotation=32.727|XOffset=0mm|YOffset=0mm|HoleType=Round|Shape=Round|*
%AMOVALD76*
21,1,4.0000,5.0000,0.0000,0.0000,32.7*
1,1,5.0000,-1.6825,-1.0813*
1,1,5.0000,1.6825,1.0813*
%
%ADD76OVALD76*%

%ADD77O,9.0000X5.0000*%
%ADD78C,8.0000*%
%ADD79C,0.6000*%
D45*
X372847Y280251D02*
G03*
X389454Y435649I199654J57250D01*
G01*
X354866Y280144D02*
X372369D01*
D66*
X442970Y375538D02*
D03*
D67*
X355000Y279600D02*
D03*
Y305000D02*
D03*
Y330400D02*
D03*
D68*
X686067Y264509D02*
D03*
D69*
X628577Y214698D02*
D03*
D70*
X553283Y203876D02*
D03*
D71*
X484091Y235478D02*
D03*
D72*
X442968Y299471D02*
D03*
D73*
X484096Y439529D02*
D03*
D74*
X553290Y471127D02*
D03*
D75*
X628583Y460300D02*
D03*
D76*
X686070Y410487D02*
D03*
D77*
X707501Y337501D02*
D03*
D78*
X572501D02*
D03*
X350000Y115000D02*
D03*
X795000D02*
D03*
Y560000D02*
D03*
X350000D02*
D03*
D79*
X720157Y191276D02*
D03*
X617262Y134581D02*
D03*
X500738Y142506D02*
D03*
X407054Y211771D02*
D03*
X775502Y295001D02*
D03*
X766253Y411499D02*
D03*
X695489Y504502D02*
D03*
X585677Y544484D02*
D03*
X471682Y518750D02*
D03*
X389505Y435527D02*
D03*
M02*
