G04*
G04 #@! TF.GenerationSoftware,Altium Limited,Altium Designer,21.9.2 (33)*
G04*
G04 Layer_Color=8388736*
%FSLAX44Y44*%
%MOMM*%
G71*
G04*
G04 #@! TF.SameCoordinates,306BE07C-DE04-4A2C-8D75-E4C0B7DA88A3*
G04*
G04*
G04 #@! TF.FilePolarity,Negative*
G04*
G01*
G75*
G04:AMPARAMS|DCode=12|XSize=1.3532mm|YSize=2.0032mm|CornerRadius=0mm|HoleSize=0mm|Usage=FLASHONLY|Rotation=229.091|XOffset=0mm|YOffset=0mm|HoleType=Round|Shape=Rectangle|*
%AMROTATEDRECTD12*
4,1,4,-0.3139,1.1673,1.2000,-0.1446,0.3139,-1.1673,-1.2000,0.1446,-0.3139,1.1673,0.0*
%
%ADD12ROTATEDRECTD12*%

G04:AMPARAMS|DCode=13|XSize=2.0032mm|YSize=1.4032mm|CornerRadius=0mm|HoleSize=0mm|Usage=FLASHONLY|Rotation=319.091|XOffset=0mm|YOffset=0mm|HoleType=Round|Shape=Rectangle|*
%AMROTATEDRECTD13*
4,1,4,-1.2164,0.1257,-0.2975,1.1861,1.2164,-0.1257,0.2975,-1.1861,-1.2164,0.1257,0.0*
%
%ADD13ROTATEDRECTD13*%

G04:AMPARAMS|DCode=14|XSize=1.3532mm|YSize=2.0032mm|CornerRadius=0mm|HoleSize=0mm|Usage=FLASHONLY|Rotation=261.818|XOffset=0mm|YOffset=0mm|HoleType=Round|Shape=Rectangle|*
%AMROTATEDRECTD14*
4,1,4,-0.8951,0.8123,1.0877,0.5272,0.8951,-0.8123,-1.0877,-0.5272,-0.8951,0.8123,0.0*
%
%ADD14ROTATEDRECTD14*%

G04:AMPARAMS|DCode=15|XSize=2.0032mm|YSize=1.4032mm|CornerRadius=0mm|HoleSize=0mm|Usage=FLASHONLY|Rotation=351.818|XOffset=0mm|YOffset=0mm|HoleType=Round|Shape=Rectangle|*
%AMROTATEDRECTD15*
4,1,4,-1.0913,-0.5519,-0.8916,0.8370,1.0913,0.5519,0.8916,-0.8370,-1.0913,-0.5519,0.0*
%
%ADD15ROTATEDRECTD15*%

G04:AMPARAMS|DCode=16|XSize=1.3532mm|YSize=2.0032mm|CornerRadius=0mm|HoleSize=0mm|Usage=FLASHONLY|Rotation=294.545|XOffset=0mm|YOffset=0mm|HoleType=Round|Shape=Rectangle|*
%AMROTATEDRECTD16*
4,1,4,-1.1922,0.1994,0.6300,1.0315,1.1922,-0.1994,-0.6300,-1.0315,-1.1922,0.1994,0.0*
%
%ADD16ROTATEDRECTD16*%

G04:AMPARAMS|DCode=17|XSize=2.0032mm|YSize=1.4032mm|CornerRadius=0mm|HoleSize=0mm|Usage=FLASHONLY|Rotation=24.545|XOffset=0mm|YOffset=0mm|HoleType=Round|Shape=Rectangle|*
%AMROTATEDRECTD17*
4,1,4,-0.6196,-1.0543,-1.2025,0.2221,0.6196,1.0543,1.2025,-0.2221,-0.6196,-1.0543,0.0*
%
%ADD17ROTATEDRECTD17*%

G04:AMPARAMS|DCode=18|XSize=1.3532mm|YSize=2.0032mm|CornerRadius=0mm|HoleSize=0mm|Usage=FLASHONLY|Rotation=147.273|XOffset=0mm|YOffset=0mm|HoleType=Round|Shape=Rectangle|*
%AMROTATEDRECTD18*
4,1,4,1.1107,0.4768,0.0277,-1.2084,-1.1107,-0.4768,-0.0277,1.2084,1.1107,0.4768,0.0*
%
%ADD18ROTATEDRECTD18*%

G04:AMPARAMS|DCode=19|XSize=2.0032mm|YSize=1.4032mm|CornerRadius=0mm|HoleSize=0mm|Usage=FLASHONLY|Rotation=57.273|XOffset=0mm|YOffset=0mm|HoleType=Round|Shape=Rectangle|*
%AMROTATEDRECTD19*
4,1,4,0.0487,-1.2219,-1.1317,-0.4633,-0.0487,1.2219,1.1317,0.4633,0.0487,-1.2219,0.0*
%
%ADD19ROTATEDRECTD19*%

%ADD20R,1.3532X2.0032*%
%ADD21R,1.4032X2.0032*%
G04:AMPARAMS|DCode=22|XSize=1.3532mm|YSize=2.0032mm|CornerRadius=0mm|HoleSize=0mm|Usage=FLASHONLY|Rotation=212.727|XOffset=0mm|YOffset=0mm|HoleType=Round|Shape=Rectangle|*
%AMROTATEDRECTD22*
4,1,4,0.0277,1.2084,1.1107,-0.4768,-0.0277,-1.2084,-1.1107,0.4768,0.0277,1.2084,0.0*
%
%ADD22ROTATEDRECTD22*%

G04:AMPARAMS|DCode=23|XSize=2.0032mm|YSize=1.4032mm|CornerRadius=0mm|HoleSize=0mm|Usage=FLASHONLY|Rotation=122.727|XOffset=0mm|YOffset=0mm|HoleType=Round|Shape=Rectangle|*
%AMROTATEDRECTD23*
4,1,4,1.1317,-0.4633,-0.0487,-1.2219,-1.1317,0.4633,0.0487,1.2219,1.1317,-0.4633,0.0*
%
%ADD23ROTATEDRECTD23*%

G04:AMPARAMS|DCode=24|XSize=2.0032mm|YSize=1.4032mm|CornerRadius=0mm|HoleSize=0mm|Usage=FLASHONLY|Rotation=155.455|XOffset=0mm|YOffset=0mm|HoleType=Round|Shape=Rectangle|*
%AMROTATEDRECTD24*
4,1,4,1.2025,0.2221,0.6196,-1.0543,-1.2025,-0.2221,-0.6196,1.0543,1.2025,0.2221,0.0*
%
%ADD24ROTATEDRECTD24*%

G04:AMPARAMS|DCode=25|XSize=2.0032mm|YSize=1.4032mm|CornerRadius=0mm|HoleSize=0mm|Usage=FLASHONLY|Rotation=188.182|XOffset=0mm|YOffset=0mm|HoleType=Round|Shape=Rectangle|*
%AMROTATEDRECTD25*
4,1,4,0.8916,0.8370,1.0913,-0.5519,-0.8916,-0.8370,-1.0913,0.5519,0.8916,0.8370,0.0*
%
%ADD25ROTATEDRECTD25*%

G04:AMPARAMS|DCode=26|XSize=1.3532mm|YSize=2.0032mm|CornerRadius=0mm|HoleSize=0mm|Usage=FLASHONLY|Rotation=278.182|XOffset=0mm|YOffset=0mm|HoleType=Round|Shape=Rectangle|*
%AMROTATEDRECTD26*
4,1,4,-1.0877,0.5272,0.8951,0.8123,1.0877,-0.5272,-0.8951,-0.8123,-1.0877,0.5272,0.0*
%
%ADD26ROTATEDRECTD26*%

G04:AMPARAMS|DCode=27|XSize=2.0032mm|YSize=1.4032mm|CornerRadius=0mm|HoleSize=0mm|Usage=FLASHONLY|Rotation=220.909|XOffset=0mm|YOffset=0mm|HoleType=Round|Shape=Rectangle|*
%AMROTATEDRECTD27*
4,1,4,0.2975,1.1861,1.2164,0.1257,-0.2975,-1.1861,-1.2164,-0.1257,0.2975,1.1861,0.0*
%
%ADD27ROTATEDRECTD27*%

G04:AMPARAMS|DCode=28|XSize=1.3532mm|YSize=2.0032mm|CornerRadius=0mm|HoleSize=0mm|Usage=FLASHONLY|Rotation=310.909|XOffset=0mm|YOffset=0mm|HoleType=Round|Shape=Rectangle|*
%AMROTATEDRECTD28*
4,1,4,-1.2000,-0.1446,0.3139,1.1673,1.2000,0.1446,-0.3139,-1.1673,-1.2000,-0.1446,0.0*
%
%ADD28ROTATEDRECTD28*%

G04:AMPARAMS|DCode=29|XSize=1.3532mm|YSize=2.0032mm|CornerRadius=0mm|HoleSize=0mm|Usage=FLASHONLY|Rotation=163.636|XOffset=0mm|YOffset=0mm|HoleType=Round|Shape=Rectangle|*
%AMROTATEDRECTD29*
4,1,4,0.9314,0.7704,0.3670,-1.1517,-0.9314,-0.7704,-0.3670,1.1517,0.9314,0.7704,0.0*
%
%ADD29ROTATEDRECTD29*%

G04:AMPARAMS|DCode=30|XSize=2.0032mm|YSize=1.4032mm|CornerRadius=0mm|HoleSize=0mm|Usage=FLASHONLY|Rotation=253.636|XOffset=0mm|YOffset=0mm|HoleType=Round|Shape=Rectangle|*
%AMROTATEDRECTD30*
4,1,4,-0.3910,1.1587,0.9554,0.7634,0.3910,-1.1587,-0.9554,-0.7634,-0.3910,1.1587,0.0*
%
%ADD30ROTATEDRECTD30*%

G04:AMPARAMS|DCode=31|XSize=1.3532mm|YSize=2.0032mm|CornerRadius=0mm|HoleSize=0mm|Usage=FLASHONLY|Rotation=65.455|XOffset=0mm|YOffset=0mm|HoleType=Round|Shape=Rectangle|*
%AMROTATEDRECTD31*
4,1,4,0.6300,-1.0315,-1.1922,-0.1994,-0.6300,1.0315,1.1922,0.1994,0.6300,-1.0315,0.0*
%
%ADD31ROTATEDRECTD31*%

G04:AMPARAMS|DCode=32|XSize=9.2032mm|YSize=5.2032mm|CornerRadius=0mm|HoleSize=0mm|Usage=FLASHONLY|Rotation=163.635|XOffset=0mm|YOffset=0mm|HoleType=Round|Shape=Round|*
%AMOVALD32*
21,1,4.0000,5.2032,0.0000,0.0000,163.6*
1,1,5.2032,1.9190,-0.5635*
1,1,5.2032,-1.9190,0.5635*
%
%ADD32OVALD32*%

%ADD33C,1.8032*%
G04:AMPARAMS|DCode=34|XSize=9.2032mm|YSize=5.2032mm|CornerRadius=0mm|HoleSize=0mm|Usage=FLASHONLY|Rotation=327.270|XOffset=0mm|YOffset=0mm|HoleType=Round|Shape=Round|*
%AMOVALD34*
21,1,4.0000,5.2032,0.0000,0.0000,327.3*
1,1,5.2032,-1.6825,1.0814*
1,1,5.2032,1.6825,-1.0814*
%
%ADD34OVALD34*%

G04:AMPARAMS|DCode=35|XSize=9.2032mm|YSize=5.2032mm|CornerRadius=0mm|HoleSize=0mm|Usage=FLASHONLY|Rotation=294.543|XOffset=0mm|YOffset=0mm|HoleType=Round|Shape=Round|*
%AMOVALD35*
21,1,4.0000,5.2032,0.0000,0.0000,294.5*
1,1,5.2032,-0.8307,1.8193*
1,1,5.2032,0.8307,-1.8193*
%
%ADD35OVALD35*%

G04:AMPARAMS|DCode=36|XSize=9.2032mm|YSize=5.2032mm|CornerRadius=0mm|HoleSize=0mm|Usage=FLASHONLY|Rotation=261.816|XOffset=0mm|YOffset=0mm|HoleType=Round|Shape=Round|*
%AMOVALD36*
21,1,4.0000,5.2032,0.0000,0.0000,261.8*
1,1,5.2032,0.2847,1.9796*
1,1,5.2032,-0.2847,-1.9796*
%
%ADD36OVALD36*%

G04:AMPARAMS|DCode=37|XSize=9.2032mm|YSize=5.2032mm|CornerRadius=0mm|HoleSize=0mm|Usage=FLASHONLY|Rotation=229.089|XOffset=0mm|YOffset=0mm|HoleType=Round|Shape=Round|*
%AMOVALD37*
21,1,4.0000,5.2032,0.0000,0.0000,229.1*
1,1,5.2032,1.3098,1.5115*
1,1,5.2032,-1.3098,-1.5115*
%
%ADD37OVALD37*%

G04:AMPARAMS|DCode=38|XSize=9.2032mm|YSize=5.2032mm|CornerRadius=0mm|HoleSize=0mm|Usage=FLASHONLY|Rotation=196.362|XOffset=0mm|YOffset=0mm|HoleType=Round|Shape=Round|*
%AMOVALD38*
21,1,4.0000,5.2032,0.0000,0.0000,196.4*
1,1,5.2032,1.9190,0.5634*
1,1,5.2032,-1.9190,-0.5634*
%
%ADD38OVALD38*%

G04:AMPARAMS|DCode=39|XSize=9.2032mm|YSize=5.2032mm|CornerRadius=0mm|HoleSize=0mm|Usage=FLASHONLY|Rotation=130.908|XOffset=0mm|YOffset=0mm|HoleType=Round|Shape=Round|*
%AMOVALD39*
21,1,4.0000,5.2032,0.0000,0.0000,130.9*
1,1,5.2032,1.3097,-1.5115*
1,1,5.2032,-1.3097,1.5115*
%
%ADD39OVALD39*%

G04:AMPARAMS|DCode=40|XSize=9.2032mm|YSize=5.2032mm|CornerRadius=0mm|HoleSize=0mm|Usage=FLASHONLY|Rotation=98.181|XOffset=0mm|YOffset=0mm|HoleType=Round|Shape=Round|*
%AMOVALD40*
21,1,4.0000,5.2032,0.0000,0.0000,98.2*
1,1,5.2032,0.2846,-1.9797*
1,1,5.2032,-0.2846,1.9797*
%
%ADD40OVALD40*%

G04:AMPARAMS|DCode=41|XSize=9.2032mm|YSize=5.2032mm|CornerRadius=0mm|HoleSize=0mm|Usage=FLASHONLY|Rotation=65.454|XOffset=0mm|YOffset=0mm|HoleType=Round|Shape=Round|*
%AMOVALD41*
21,1,4.0000,5.2032,0.0000,0.0000,65.5*
1,1,5.2032,-0.8309,-1.8193*
1,1,5.2032,0.8309,1.8193*
%
%ADD41OVALD41*%

G04:AMPARAMS|DCode=42|XSize=9.2032mm|YSize=5.2032mm|CornerRadius=0mm|HoleSize=0mm|Usage=FLASHONLY|Rotation=32.727|XOffset=0mm|YOffset=0mm|HoleType=Round|Shape=Round|*
%AMOVALD42*
21,1,4.0000,5.2032,0.0000,0.0000,32.7*
1,1,5.2032,-1.6825,-1.0813*
1,1,5.2032,1.6825,1.0813*
%
%ADD42OVALD42*%

%ADD43O,9.2032X5.2032*%
%ADD44C,8.2032*%
D12*
X399790Y180174D02*
D03*
X418781Y202091D02*
D03*
X439564Y184083D02*
D03*
X420573Y162166D02*
D03*
D13*
X441356Y144157D02*
D03*
X460347Y166074D02*
D03*
D14*
X512264Y111775D02*
D03*
X516391Y140480D02*
D03*
X543611Y136566D02*
D03*
X539484Y107861D02*
D03*
D15*
X566704Y103948D02*
D03*
X570832Y132652D02*
D03*
D16*
X643863Y115042D02*
D03*
X631816Y141421D02*
D03*
X656831Y152845D02*
D03*
X668878Y126466D02*
D03*
D17*
X693893Y137890D02*
D03*
X681846Y164269D02*
D03*
D18*
X743276Y227751D02*
D03*
X767673Y212072D02*
D03*
X752805Y188938D02*
D03*
X728409Y204616D02*
D03*
D19*
X782540Y235207D02*
D03*
X758144Y250885D02*
D03*
D20*
X804502Y310001D02*
D03*
X775502D02*
D03*
Y337501D02*
D03*
X804502D02*
D03*
D21*
Y365001D02*
D03*
X775502D02*
D03*
D22*
X743276Y447252D02*
D03*
X767672Y462930D02*
D03*
X782540Y439796D02*
D03*
X758143Y424117D02*
D03*
D23*
X752804Y486065D02*
D03*
X728408Y470386D02*
D03*
D24*
X643862Y559960D02*
D03*
X631815Y533581D02*
D03*
D25*
X512263Y563226D02*
D03*
X516390Y534521D02*
D03*
D26*
X543610Y538435D02*
D03*
X539483Y567140D02*
D03*
X566703Y571054D02*
D03*
X570830Y542349D02*
D03*
D27*
X399789Y494826D02*
D03*
X418780Y472909D02*
D03*
D28*
X439563Y490918D02*
D03*
X420572Y512835D02*
D03*
X441355Y530843D02*
D03*
X460346Y508927D02*
D03*
D29*
X358349Y431647D02*
D03*
X386174Y423476D02*
D03*
X377722Y394692D02*
D03*
X349897Y402862D02*
D03*
D30*
X342150Y376476D02*
D03*
X369975Y368306D02*
D03*
D31*
X693892Y537113D02*
D03*
X681845Y510733D02*
D03*
X656830Y522157D02*
D03*
X668877Y548536D02*
D03*
D32*
X442970Y375538D02*
D03*
D33*
X355000Y279600D02*
D03*
Y305000D02*
D03*
Y330400D02*
D03*
D34*
X686067Y264509D02*
D03*
D35*
X628577Y214698D02*
D03*
D36*
X553283Y203876D02*
D03*
D37*
X484091Y235478D02*
D03*
D38*
X442968Y299471D02*
D03*
D39*
X484096Y439529D02*
D03*
D40*
X553290Y471127D02*
D03*
D41*
X628583Y460300D02*
D03*
D42*
X686070Y410487D02*
D03*
D43*
X707501Y337501D02*
D03*
D44*
X572501D02*
D03*
X350000Y115000D02*
D03*
X795000D02*
D03*
Y560000D02*
D03*
X350000D02*
D03*
M02*
